<?xml version="1.0" encoding="UTF-8"?>
<svg id="_Слой_1" data-name="Слой 1" xmlns="http://www.w3.org/2000/svg" viewBox="0 0 120 120">
  <defs>
    <style>
      .cls-1 {
        fill: #ff592a;
      }

      .cls-2 {
        fill: #222;
      }
    </style>
  </defs>
  <rect class="cls-2" x="0" width="120" height="120"/>
  <g>
    <polygon class="cls-1" points="36.61 20.92 24.26 33.27 24.26 24.69 28.03 20.92 36.61 20.92"/>
    <polygon class="cls-1" points="55 20.92 39.92 36 31.34 36 46.42 20.92 55 20.92"/>
    <polygon class="cls-1" points="73.39 20.92 50.95 43.36 50.95 34.78 64.81 20.92 73.39 20.92"/>
    <polygon class="cls-1" points="91.78 20.92 76.7 36 69.04 36 69.04 43.65 50.95 61.75 50.95 53.17 83.21 20.92 91.78 20.92"/>
    <polygon class="cls-1" points="69.04 53.46 69.04 62.05 50.95 80.14 50.95 71.56 69.04 53.46"/>
    <polygon class="cls-1" points="95.74 26.77 95.74 35.35 95.09 36 86.51 36 95.74 26.77"/>
    <polygon class="cls-1" points="69.04 71.87 69.04 80.44 50.95 98.52 50.95 89.96 69.04 71.87"/>
    <polygon class="cls-1" points="69.04 90.26 69.04 98.83 68.78 99.08 60.21 99.08 69.04 90.26"/>
    <path class="cls-1" d="m86.51,36h9.23v-9.23l-9.23,9.23Zm-3.3-15.08l-32.26,32.25v8.58l18.09-18.1v-7.65h7.66l15.08-15.08h-8.57Zm-18.4,0l-13.86,13.86v8.58l22.44-22.44h-8.58Zm-4.6,78.16h8.83v-8.82l-8.83,8.82Zm-9.26-9.12v8.56l18.09-18.08v-8.57l-18.09,18.09Zm0-18.4v8.58l18.09-18.09v-8.59l-18.09,18.1Zm-4.53-50.64l-15.08,15.08h8.58l15.08-15.08h-8.58Zm-22.16,0v12.35l12.35-12.35h-12.35Z"/>
  </g>
</svg>